# xmcd
#
# Track frame offsets:
#	150
#	22847
#	43742
#	65477
#	85656
#	108586
#	133266
#	153687
#	174805
#	197701
#
# Disc length: 2873 seconds
#
# Revision: 2
# Processed by: cddbd v1.5PL3 Copyright (c) Steve Scherf et al.
# Submitted via: audiograbber 1.82.01
#
DISCID=800b370a
DTITLE=Karina - 3alatoul
DYEAR=1900
DGENRE=
TTITLE0=3alatoul
TTITLE1=Ma Hada Rad
TTITLE2=Mama
TTITLE3=El Haya Gamila
TTITLE4=Malaki Ana
TTITLE5=Losing My Mind
TTITLE6=Sarhak
TTITLE7=Maghroum
TTITLE8=Hanoun
TTITLE9=Romeo
EXTD=
EXTT0=
EXTT1=
EXTT2=
EXTT3=
EXTT4=
EXTT5=
EXTT6=
EXTT7=
EXTT8=
EXTT9=
PLAYORDER=
